<?xml version="1.0" encoding="UTF-8" standalone="no"?>
<!-- Created with Inkscape (http://www.inkscape.org/) -->

<svg
   xmlns:dc="http://purl.org/dc/elements/1.1/"
   xmlns:cc="http://creativecommons.org/ns#"
   xmlns:rdf="http://www.w3.org/1999/02/22-rdf-syntax-ns#"
   xmlns:svg="http://www.w3.org/2000/svg"
   xmlns="http://www.w3.org/2000/svg"
   xmlns:sodipodi="http://sodipodi.sourceforge.net/DTD/sodipodi-0.dtd"
   xmlns:inkscape="http://www.inkscape.org/namespaces/inkscape"
   version="1.1"
   id="svg834"
   width="853.33331"
   height="689.33331"
   viewBox="0 0 853.33331 689.33331"
   sodipodi:docname="cameem_dec.svg"
   inkscape:version="0.92.3 (2405546, 2018-03-11)">
  <metadata
     id="metadata840">
    <rdf:RDF>
      <cc:Work
         rdf:about="">
        <dc:format>image/svg+xml</dc:format>
        <dc:type
           rdf:resource="http://purl.org/dc/dcmitype/StillImage" />
        <dc:title></dc:title>
      </cc:Work>
    </rdf:RDF>
  </metadata>
  <defs
     id="defs838">
    <marker
       inkscape:stockid="Arrow1Lstart"
       orient="auto"
       refY="0.0"
       refX="0.0"
       id="marker1138"
       style="overflow:visible"
       inkscape:isstock="true">
      <path
         id="path1136"
         d="M 0.0,0.0 L 5.0,-5.0 L -12.5,0.0 L 5.0,5.0 L 0.0,0.0 z "
         style="fill-rule:evenodd;stroke:#ffffff;stroke-width:1pt;stroke-opacity:1;fill:#ffffff;fill-opacity:1"
         transform="scale(0.8) translate(12.5,0)" />
    </marker>
    <marker
       inkscape:stockid="Arrow1Lend"
       orient="auto"
       refY="0.0"
       refX="0.0"
       id="Arrow1Lend"
       style="overflow:visible;"
       inkscape:isstock="true">
      <path
         id="path849"
         d="M 0.0,0.0 L 5.0,-5.0 L -12.5,0.0 L 5.0,5.0 L 0.0,0.0 z "
         style="fill-rule:evenodd;stroke:#ffffff;stroke-width:1pt;stroke-opacity:1;fill:#ffffff;fill-opacity:1"
         transform="scale(0.8) rotate(180) translate(12.5,0)" />
    </marker>
    <marker
       inkscape:stockid="Arrow1Lstart"
       orient="auto"
       refY="0.0"
       refX="0.0"
       id="Arrow1Lstart"
       style="overflow:visible"
       inkscape:isstock="true">
      <path
         id="path846"
         d="M 0.0,0.0 L 5.0,-5.0 L -12.5,0.0 L 5.0,5.0 L 0.0,0.0 z "
         style="fill-rule:evenodd;stroke:#ffffff;stroke-width:1pt;stroke-opacity:1;fill:#ffffff;fill-opacity:1"
         transform="scale(0.8) translate(12.5,0)" />
    </marker>
  </defs>
  <sodipodi:namedview
     pagecolor="#ffffff"
     bordercolor="#666666"
     borderopacity="1"
     objecttolerance="10"
     gridtolerance="10"
     guidetolerance="10"
     inkscape:pageopacity="0"
     inkscape:pageshadow="2"
     inkscape:window-width="1920"
     inkscape:window-height="1053"
     id="namedview836"
     showgrid="false"
     inkscape:zoom="0.57736946"
     inkscape:cx="201.08615"
     inkscape:cy="254.57981"
     inkscape:window-x="0"
     inkscape:window-y="27"
     inkscape:window-maximized="1"
     inkscape:current-layer="svg834" />
  <path
     style="fill:#000000;stroke-width:1.33333325"
     d="m 0,529.33332 v -160 h 212.66666 212.66666 v 160 159.99999 H 286.29809 147.26286 l 0.49083,-5.1468 c 1.03076,-10.8086 -8.80141,-21.51987 -19.75369,-21.51987 -10.95229,0 -20.78446,10.71127 -19.75369,21.51987 l 0.49082,5.1468 H 54.368567 0 Z m 213.3685,99.98205 c 5.91507,-3.01764 10.63149,-10.69923 10.63149,-17.31539 0,-10.14592 -9.85408,-20 -20,-20 -6.61616,0 -14.29774,4.71643 -17.31538,10.63149 -3.39919,6.66296 -3.40014,12.07222 -0.003,18.73064 4.92759,9.65886 16.55284,13.1234 26.68715,7.95326 z M 52.035172,526.6487 c 5.915069,-3.01764 10.631493,-10.69922 10.631493,-17.31538 0,-6.61616 -4.716424,-14.29775 -10.631493,-17.31539 -2.894249,-1.47653 -7.110077,-2.68461 -9.368507,-2.68461 -10.145922,0 -19.999999,9.85408 -19.999999,20 0,6.41148 4.719141,14.27825 10.348028,17.25009 6.433329,3.39655 12.450186,3.41721 19.020478,0.0653 z m 374.631478,2.68462 v -160 h 213.33333 213.33333 v 160 159.99999 H 639.99998 426.66665 Z m 376.03517,54.64871 c 5.91506,-3.01764 10.63149,-10.69922 10.63149,-17.31538 0,-10.14592 -9.85408,-20 -20,-20 -10.14592,0 -20,9.85408 -20,20 0,6.41148 4.71915,14.27825 10.34803,17.25009 6.43333,3.39655 12.45018,3.41721 19.02048,0.0653 z M 632.03516,558.6487 c 5.91506,-3.01764 10.63149,-10.69923 10.63149,-17.31538 0,-6.61616 -4.71643,-14.29775 -10.63149,-17.31539 -2.89426,-1.47653 -7.11008,-2.68461 -9.36851,-2.68461 -6.61616,0 -14.29775,4.71642 -17.31539,10.63149 -3.39918,6.66296 -3.40013,12.07221 -0.003,18.73064 4.92758,9.65885 16.55284,13.1234 26.68714,7.95325 z M 0,186.20665 C 0,11.78153 0.0988271,4.3238627 2.4383209,2.2066501 4.6963935,0.16312239 36.073788,0 426.89832,0 c 407.15443,0 422.09943,0.08589878 424.22834,2.4383209 2.03057,2.2437548 2.20665,16.9260381 2.20665,183.9999891 V 367.99999 H 640.00538 426.67745 l -0.34418,-159.66666 -0.34417,-159.666665 -0.3279,159.666665 -0.32788,159.66666 -64.33333,-0.0533 c -57.74274,-0.0479 -63.95845,-0.25677 -60.674,-2.03873 4.38584,-2.37957 9.00733,-10.88367 9.00733,-16.5746 0,-6.61616 -4.71642,-14.29774 -10.63149,-17.31538 -6.66464,-3.40006 -12.07237,-3.40006 -18.73701,0 -5.91507,3.01764 -10.63149,10.69922 -10.63149,17.31538 0,5.69093 4.62149,14.19503 9.00733,16.57455 3.26071,1.76908 -11.70045,1.99117 -137.34066,2.03873 l -141,0.0534 z m 546.70183,84.44206 c 5.91506,-3.01764 10.63149,-10.69923 10.63149,-17.31539 0,-10.14591 -9.85408,-19.99999 -20,-19.99999 -6.61616,0 -14.29775,4.71642 -17.31539,10.63149 -3.39918,6.66296 -3.40013,12.07221 -0.003,18.73064 4.92758,9.65885 16.55284,13.1234 26.68714,7.95325 z M 376.03516,130.64872 c 5.91507,-3.01765 10.6315,-10.69923 10.6315,-17.31539 0,-10.14592 -9.85408,-20 -20,-20 -10.14592,0 -20,9.85408 -20,20 0,6.41148 4.71914,14.27825 10.34802,17.25009 6.43334,3.39655 12.45019,3.41722 19.02048,0.0653 z M 155.73333,75.733331 c 0.88,-0.88 1.6,-5.08 1.6,-9.333333 0,-7.580952 -0.0736,-7.733333 -3.73333,-7.733333 -4.66078,0 -6.93334,2.185156 -6.93334,6.666666 0,4.073947 2.2085,6.666667 5.6787,6.666667 1.37752,0 2.0977,0.616432 1.62112,1.387569 -0.47167,0.763164 -2.00707,1.02273 -3.41203,0.576817 C 149.1495,73.51847 148,73.694063 148,74.354592 c 0,3.174532 5.03913,4.072936 7.73333,1.378739 z m -5.87528,-8.289123 c -1.10357,-2.875866 0.43191,-6.458669 2.47599,-5.77731 0.91628,0.305428 1.66596,1.955323 1.66596,3.666433 0,3.654441 -2.969,5.167543 -4.14195,2.110877 z m 382.14194,6.836561 c 0,-2.418789 0.7262,-3.041647 3.49772,-2.999999 4.66506,0.07011 6.79072,-3.360106 5.0879,-8.210413 -1.09845,-3.128818 -2.12089,-3.769599 -6.28213,-3.937168 l -4.97016,-0.200143 v 9.200142 c 0,5.24454 0.57327,9.200143 1.33333,9.200143 0.73334,0 1.33334,-1.373652 1.33334,-3.052562 z m 1.85805,-6.836561 c -1.10357,-2.875866 0.43191,-6.458669 2.47599,-5.77731 0.91628,0.305428 1.66596,1.955323 1.66596,3.666433 0,3.654441 -2.969,5.167543 -4.14195,2.110877 z M 109.04715,65.974752 c 4.38196,-8.886139 5.07794,-11.308087 3.24955,-11.308087 -0.81495,0 -5.22034,8.86509 -9.40781,18.931575 -0.24445,0.587633 0.0768,1.068424 0.71382,1.068424 0.63705,0 3.08705,-3.91136 5.44444,-8.691912 z m 352.95284,6.663208 c 3.11366,-0.675354 4.6385,-2.245525 6.88157,-7.086114 l 2.88157,-6.218515 0.1184,6.333333 c 0.1393,7.44955 2.43795,8.536397 3.03794,1.4364 0.59444,-7.033851 3.74718,-7.494511 3.74718,-0.54751 0,2.994444 0.63288,5.444444 1.40639,5.444444 0.84595,0 1.24444,-2.523824 1,-6.333334 -0.3468,-5.404657 -0.84628,-6.395809 -3.40639,-6.759401 -1.92794,-0.273812 -3,-1.345868 -3,-3 0,-1.415662 -0.6,-2.573931 -1.33333,-2.573931 -0.73333,0 -1.33333,-0.9 -1.33333,-2 0,-1.68889 -3.11111,-2 -20,-2 h -20 v 4.719784 c 0,6.936654 4.52922,14.781538 10.34802,17.923403 4.9451,2.670102 9.65962,2.828784 19.65198,0.661441 z M 26.388258,69.526746 c 0.432189,-1.314659 -0.192592,-1.556959 -2.294492,-0.889842 -3.615004,1.147358 -6.760433,-1.320238 -6.760433,-5.303573 0,-3.983334 3.145429,-6.45093 6.760433,-5.303573 2.1019,0.667117 2.726681,0.424817 2.294492,-0.889841 -0.326649,-0.993623 -2.139623,-1.99084 -4.028827,-2.216042 -6.469367,-0.771174 -10.225756,9.400557 -5.428999,14.700913 2.542586,2.809528 8.52235,2.74754 9.457826,-0.09804 z m 13.854346,-0.860082 c 3.112471,-6.831127 -4.242006,-13.467265 -9.309272,-8.399999 -2.062557,2.062557 -2.062557,8.070775 0,10.133333 2.791612,2.791612 7.660636,1.885026 9.309272,-1.733334 z m -7.760437,-1.333333 c -1.060068,-2.762496 0.378823,-6 2.666667,-6 1.044557,0 2.244557,0.9 2.666666,2 1.06007,2.762496 -0.378821,6 -2.666666,6 -1.044556,0 -2.244556,-0.9 -2.666667,-2 z m 22.427103,1.333333 c 2.100155,-4.609337 -0.387107,-9.999999 -4.614019,-9.999999 -4.053123,0 -6.295252,2.374413 -6.295252,6.666666 0,6.993 8.11242,9.471753 10.909271,3.333333 z m -7.760437,-1.333333 c -1.060068,-2.762496 0.378823,-6 2.666667,-6 1.044557,0 2.244557,0.9 2.666667,2 1.060069,2.762496 -0.378822,6 -2.666667,6 -1.044556,0 -2.244556,-0.9 -2.666667,-2 z m 16.851165,0.142652 c 0,-4.429497 2.699838,-7.103576 5.453656,-5.401621 0.667156,0.412324 1.213011,-0.167459 1.213011,-1.288407 0,-1.47377 -1.292132,-1.98951 -4.666667,-1.862649 -4.666097,0.175417 -4.666666,0.176225 -4.666666,6.626065 0,3.547844 0.6,6.450627 1.333333,6.450627 0.733333,0 1.333333,-2.035807 1.333333,-4.524015 z m 20,-4.809318 c 0,-5.333334 -0.571428,-9.333333 -1.333334,-9.333333 -0.733333,0 -1.333333,1.199999 -1.333333,2.666666 0,1.679012 -0.888889,2.666667 -2.4,2.666667 -3.39616,0 -5.6,2.62362 -5.6,6.666666 0,4.481511 2.272562,6.666667 6.933333,6.666667 h 3.733334 z m -7.475284,4.777543 c -1.103573,-2.875866 0.431909,-6.458669 2.475985,-5.77731 0.916281,0.305428 1.665965,1.955323 1.665965,3.666433 0,3.654441 -2.968997,5.167543 -4.14195,2.110877 z m 19.475283,2.55579 c 0,-1.1 -0.9,-2 -2,-2 -1.1,0 -2,0.9 -2,2 0,1.1 0.9,2 2,2 1.1,0 2,-0.9 2,-2 z m 31.985903,0.01697 c 2.34813,-2.829323 0.70486,-5.914897 -4.02891,-7.5651 -4.88764,-1.70384 -4.47207,-4.559238 0.60963,-4.188857 4.61984,0.336717 3.88875,-2.770609 -0.78358,-3.330433 -3.84452,-0.46064 -7.12259,2.72406 -5.94979,5.780328 0.43903,1.144114 2.63343,2.719956 4.87642,3.501869 5.13435,1.789842 4.3751,4.516092 -1.18508,4.255282 -4.02203,-0.18866 -5.19445,0.748967 -3.30237,2.641042 1.63607,1.63607 8.09888,0.91184 9.76368,-1.094131 z m 15.68523,-0.338408 c 0.38641,-1.17724 -0.5954,-1.427052 -3.40228,-0.865675 -2.2792,0.45584 -4.32851,0.169266 -4.85251,-0.678572 -0.59514,-0.962973 0.72471,-1.467652 3.8383,-1.467652 3.68072,0 4.74536,-0.53845 4.74536,-2.4 0,-4.959607 -6.81807,-7.581938 -10.4,-3.999999 -2.08832,2.08832 -2.05299,8.080345 0.0601,10.193439 2.04541,2.045415 9.26819,1.481552 10.01103,-0.781534 z m -8.3378,-7.011898 c 0.45323,-0.733334 1.65323,-1.333334 2.66667,-1.333334 1.01344,0 2.21344,0.6 2.66666,1.333334 0.46922,0.759201 -0.67905,1.333333 -2.66666,1.333333 -1.98762,0 -3.13588,-0.574132 -2.66667,-1.333333 z m 34,7.333333 c 0,-1.1 -0.9,-2 -2,-2 -1.1,0 -2,0.9 -2,2 0,1.1 0.9,2 2,2 1.1,0 2,-0.9 2,-2 z m 14.66666,0 c 0,-1.1 -0.9,-2 -1.99999,-2 -1.1,0 -2,0.9 -2,2 0,1.1 0.9,2 2,2 1.09999,0 1.99999,-0.9 1.99999,-2 z m 33.33334,0.666666 c 0,-0.733333 -0.9,-1.333333 -2,-1.333333 -1.53839,0 -2,-1.714008 -2,-7.426068 0,-6.863653 -0.2193,-7.3938 -2.89556,-7 -1.59256,0.234338 -3.17443,1.271678 -3.51527,2.305202 -0.42573,1.290944 0.0632,1.617052 1.56223,1.041845 1.81974,-0.698303 2.18193,0.151721 2.18193,5.120868 0,4.407248 -0.5206,5.958153 -2,5.958153 -1.1,0 -2,0.6 -2,1.333333 0,0.733334 2.4,1.333334 5.33333,1.333334 2.93334,0 5.33334,-0.6 5.33334,-1.333334 z m 13.28661,-1.246033 c 0.94632,-1.768217 0.9504,-3.710456 0.0133,-6.176109 -0.75212,-1.978208 -1.01177,-4.717493 -0.57701,-6.0873 0.66659,-2.101392 0.0755,-2.490557 -3.78284,-2.490557 -4.5564,0 -4.57609,0.02685 -5.44555,7.424477 -0.47993,4.083461 -0.52713,7.983461 -0.10493,8.666666 1.43273,2.318214 8.44789,1.370395 9.89695,-1.337177 z m -6.86995,-0.998119 c 0.9625,-0.385161 2.1125,-0.337792 2.55556,0.105267 0.44306,0.443056 -0.34445,0.758188 -1.75,0.700293 -1.55326,-0.06397 -1.8692,-0.379921 -0.80556,-0.805556 z m -1.08333,-4.422514 c 0,-0.733333 0.9,-1.333333 2,-1.333333 1.1,0 2,0.6 2,1.333333 0,0.733333 -0.9,1.333333 -2,1.333333 -1.1,0 -2,-0.6 -2,-1.333333 z m 273.28642,5.420988 c 3.32312,-6.20932 0.64757,-14.754321 -4.61976,-14.754321 -3.65215,0 -6,3.391345 -6,8.666666 0,5.275321 2.34785,8.666667 6,8.666667 1.8382,0 3.83656,-1.115599 4.61976,-2.579012 z m -7.38141,-3.324759 c -1.04055,-4.145849 0.41453,-8.762896 2.76165,-8.762896 2.34712,0 3.8022,4.617047 2.76165,8.762896 -1.04861,4.178031 -4.47469,4.178031 -5.5233,0 z m 4.76165,-3.429562 c 0,-0.733334 -0.9,-1.333334 -2,-1.333334 -1.1,0 -2,0.6 -2,1.333334 0,0.733333 0.9,1.333333 2,1.333333 1.1,0 2,-0.6 2,-1.333333 z m 33.33333,7.999999 c 0,-0.733333 -0.9,-1.333333 -2,-1.333333 -1.44444,0 -2,-1.481481 -2,-5.333333 0,-4.8 -0.33333,-5.333333 -3.33333,-5.333333 -1.83333,0 -3.33333,0.6 -3.33333,1.333333 0,0.733333 0.9,1.333333 2,1.333333 1.33333,0 2,1.333334 2,4 0,3.111111 -0.59259,4 -2.66667,4 -1.46667,0 -2.66667,0.6 -2.66667,1.333333 0,0.733334 2.7,1.333334 6,1.333334 3.3,0 6,-0.6 6,-1.333334 z m 25.33333,-0.666666 c 0,-1.1 -0.9,-2 -2,-2 -1.1,0 -1.99999,0.9 -1.99999,2 0,1.1 0.89999,2 1.99999,2 1.1,0 2,-0.9 2,-2 z m 33.33334,0.666666 c 0,-0.733333 -0.9,-1.333333 -2,-1.333333 -1.53839,0 -2,-1.714008 -2,-7.426068 0,-6.863653 -0.2193,-7.3938 -2.89556,-7 -1.59256,0.234338 -3.17443,1.271678 -3.51527,2.305202 -0.42573,1.290944 0.0632,1.617052 1.56223,1.041845 1.81974,-0.698303 2.18193,0.151721 2.18193,5.120868 0,4.407248 -0.5206,5.958153 -2,5.958153 -1.1,0 -2,0.6 -2,1.333333 0,0.733334 2.4,1.333334 5.33333,1.333334 2.93334,0 5.33334,-0.6 5.33334,-1.333334 z m 12.84886,-2.090945 c 1.76031,-2.686561 1.98236,-4.481875 1.03074,-8.333333 -1.0488,-4.244788 -1.73454,-4.909055 -5.06762,-4.909055 -4.77216,0 -7.48994,3.587579 -5.30288,7 0.82251,1.283334 3.02091,2.313449 4.88535,2.289147 2.90735,-0.03789 3.19919,0.312124 2.05021,2.458988 -0.84974,1.587782 -2.27309,2.259077 -3.89216,1.83568 -2.52444,-0.660156 -3.38406,0.473513 -1.66361,2.193962 1.94597,1.945978 5.83539,0.70713 7.95997,-2.535389 z m -6.84886,-7.242388 c -1.11606,-1.805813 0.3899,-4 2.74536,-4 1.05672,0 1.9213,1.2 1.9213,2.666667 0,2.760408 -3.21668,3.67946 -4.66666,1.333333 z m 22,9.333333 c 0,-0.733333 -1.61226,-1.333333 -3.58279,-1.333333 h -3.58279 l 3.69438,-3.856101 c 5.24757,-5.47728 4.44202,-10.143899 -1.75103,-10.143899 -2.54117,0 -4.80977,0.762683 -5.13049,1.724822 -0.41667,1.250001 0.37518,1.486356 2.87646,0.858574 5.50552,-1.381796 6.01628,2.711332 0.98596,7.901297 -2.297,2.36991 -4.17637,4.730362 -4.17637,5.24545 0,0.515088 2.4,0.936524 5.33333,0.936524 2.93334,0 5.33334,-0.6 5.33334,-1.333334 z m 12,-0.666666 c 0,-1.1 -0.9,-2 -2,-2 -1.1,0 -2,0.9 -2,2 0,1.1 0.9,2 2,2 1.1,0 2,-0.9 2,-2 z m 18.66666,0.666666 c 0,-0.733333 -0.9,-1.333333 -2,-1.333333 -1.53838,0 -2,-1.714008 -2,-7.426068 0,-6.863653 -0.21929,-7.3938 -2.89556,-7 -1.59256,0.234338 -3.17442,1.271678 -3.51526,2.305202 -0.42574,1.290944 0.0632,1.617052 1.56222,1.041845 1.81975,-0.698303 2.18194,0.151721 2.18194,5.120868 0,4.407248 -0.5206,5.958153 -2,5.958153 -1.1,0 -2,0.6 -2,1.333333 0,0.733334 2.4,1.333334 5.33333,1.333334 2.93333,0 5.33333,-0.6 5.33333,-1.333334 z m 13.8587,-1.666666 c 2.06818,-3.303059 -0.61711,-7.013717 -5.02764,-6.947439 -1.92375,0.02891 -3.49772,-0.347625 -3.49772,-0.836741 0,-1.893541 4.07082,-4.140609 6.09444,-3.36408 1.35516,0.520024 1.92886,0.210923 1.5792,-0.850833 -0.84043,-2.551922 -5.74614,-2.737943 -8.17411,-0.309958 -2.47231,2.472299 -2.84429,8.884011 -0.74319,12.809949 1.73922,3.249752 7.60903,2.948783 9.76902,-0.500898 z m -7.88487,-1.042352 c -0.51781,-0.837834 -0.31408,-2.150724 0.45272,-2.917535 1.79187,-1.791865 5.96952,-0.228913 5.24051,1.960588 -0.74214,2.228915 -4.51516,2.863104 -5.69323,0.956947 z m 21.97306,2.106336 c 0.97902,-1.179632 1.21306,-3.133088 0.59906,-5 -0.55424,-1.685192 -1.0538,-4.563984 -1.11016,-6.397317 -0.0787,-2.559615 -0.90267,-3.426352 -3.54992,-3.734078 -4.36628,-0.507552 -7.58152,2.887655 -5.31772,5.615374 1.06735,1.286073 1.119,2.154677 0.16327,2.745356 -1.88343,1.164021 -1.77063,5.134135 0.20192,7.106681 2.19309,2.193092 7.06533,2.01146 9.01355,-0.336016 z m -7.30639,-2.106336 c -0.51782,-0.837834 -0.31408,-2.150724 0.45272,-2.917535 1.79186,-1.791865 5.96951,-0.228913 5.2405,1.960588 -0.74213,2.228915 -4.51516,2.863104 -5.69322,0.956947 z m 0.28464,-7.476955 c -1.24432,-1.244324 0.25936,-3.14736 2.48689,-3.14736 1.05672,0 1.92131,0.9 1.92131,2 0,2.008307 -2.81466,2.740902 -4.4082,1.14736 z m 19.07486,9.519307 c 0,-1.1 -0.9,-2 -2,-2 -1.1,0 -2,0.9 -2,2 0,1.1 0.9,2 2,2 1.1,0 2,-0.9 2,-2 z m 17.33333,0.666666 c 0,-0.733333 -1.61225,-1.333333 -3.58278,-1.333333 h -3.58279 l 3.69437,-3.856101 c 5.24758,-5.47728 4.44203,-10.143899 -1.75102,-10.143899 -2.54118,0 -4.80978,0.762683 -5.1305,1.724822 -0.41666,1.250001 0.37519,1.486356 2.87647,0.858574 5.50552,-1.381796 6.01628,2.711332 0.98596,7.901297 -2.297,2.36991 -4.17637,4.730362 -4.17637,5.24545 0,0.515088 2.4,0.936524 5.33333,0.936524 2.93333,0 5.33333,-0.6 5.33333,-1.333334 z m 12.86674,0.312916 c 3.61434,-2.308958 2.5718,-9.401719 -1.5334,-10.432057 -1.83334,-0.460137 -3.33334,-1.371568 -3.33334,-2.025402 0,-0.653835 1.5,-1.18879 3.33334,-1.18879 1.83333,0 3.33333,-0.6 3.33333,-1.333333 0,-0.733333 -2.1,-1.333333 -4.66667,-1.333333 -4.39889,0 -4.66666,0.254717 -4.66666,4.439201 0,3.746096 0.4684,4.422672 3,4.333333 2.1464,-0.07575 3,0.652887 3,2.560799 0,2.081054 -0.80522,2.611541 -3.66667,2.415648 -3.53135,-0.241754 -4.63959,0.83365 -2.77777,2.695462 1.17912,1.179119 6.05196,1.098782 7.97784,-0.131533 z m 13.79993,-0.979582 c 0,-1.1 -0.9,-2 -2,-2 -1.1,0 -2,0.9 -2,2 0,1.1 0.9,2 2,2 1.1,0 2,-0.9 2,-2 z m 18.66667,0.666666 c 0,-0.733333 -0.9,-1.333333 -2,-1.333333 -1.53839,0 -2,-1.714008 -2,-7.426068 0,-6.863653 -0.2193,-7.3938 -2.89556,-7 -1.59256,0.234338 -3.17443,1.271678 -3.51527,2.305202 -0.42573,1.290944 0.0633,1.617052 1.56223,1.041845 1.81974,-0.698303 2.18193,0.151721 2.18193,5.120868 0,4.407248 -0.5206,5.958153 -2,5.958153 -1.1,0 -2,0.6 -2,1.333333 0,0.733334 2.4,1.333334 5.33333,1.333334 2.93334,0 5.33334,-0.6 5.33334,-1.333334 z m 13.28022,-0.602682 c 0.97902,-1.179632 1.21306,-3.133088 0.59906,-5 -0.55424,-1.685192 -1.0538,-4.563984 -1.11016,-6.397317 -0.0787,-2.559615 -0.90267,-3.426352 -3.54992,-3.734078 -4.36628,-0.507552 -7.58152,2.887655 -5.31772,5.615374 1.06734,1.286073 1.119,2.154677 0.16326,2.745356 -1.88342,1.164021 -1.77062,5.134135 0.20192,7.106681 2.1931,2.193092 7.06534,2.01146 9.01356,-0.336016 z m -7.3064,-2.106336 c -0.51781,-0.837834 -0.31408,-2.150724 0.45272,-2.917535 1.79187,-1.791865 5.96952,-0.228913 5.24051,1.960588 -0.74213,2.228915 -4.51516,2.863104 -5.69323,0.956947 z m 0.28464,-7.476955 c -1.24432,-1.244324 0.25936,-3.14736 2.4869,-3.14736 1.05672,0 1.9213,0.9 1.9213,2 0,2.008307 -2.81465,2.740902 -4.4082,1.14736 z m 20.4082,9.630417 c 0,-1.038888 0.75,-2.238888 1.66667,-2.666666 1.33333,-0.622222 1.33333,-0.933334 0,-1.555555 -0.91725,-0.428055 -1.66667,-3.125926 -1.66667,-6 0,-6.539523 -1.62962,-6.60689 -5.95193,-0.246042 -4.25744,6.265387 -4.26947,8.357153 -0.0481,8.357153 2.07408,0 3.33334,0.755556 3.33334,2 0,1.1 0.6,2 1.33333,2 0.73333,0 1.33333,-0.85 1.33333,-1.88889 z m -6.62426,-5.777777 c 0.0233,-0.55 0.92333,-2.164677 2,-3.588173 1.87745,-2.482211 1.9576,-2.441269 1.9576,1 0,2.300598 -0.71768,3.588173 -2,3.588173 -1.1,0 -1.98092,-0.45 -1.9576,-1 z m -582.70906,-2.33333 c 0,-1.1 -0.9,-2 -1.99999,-2 -1.1,0 -2,0.9 -2,2 0,1.1 0.9,2 2,2 1.09999,0 1.99999,-0.9 1.99999,-2 z m 367.99999,0 c 0,-1.1 -0.9,-2 -2,-2 -1.1,0 -1.99999,0.9 -1.99999,2 0,1.1 0.89999,2 1.99999,2 1.1,0 2,-0.9 2,-2 z m -29.33333,-7.333333 c 0,-0.733333 -0.6,-1.333333 -1.33333,-1.333333 -0.73333,0 -1.33333,0.6 -1.33333,1.333333 0,0.733333 0.6,1.333333 1.33333,1.333333 0.73333,0 1.33333,-0.6 1.33333,-1.333333 z M 383.99999,29.333332 c 0,-0.733333 -1.2,-1.333333 -2.66667,-1.333333 -1.77777,0 -2.66666,-0.888889 -2.66666,-2.666667 0,-1.777777 0.88889,-2.666666 2.66666,-2.666666 1.46667,0 2.66667,-0.6 2.66667,-1.333333 0,-2.097323 -6.15516,-1.55623 -8.03277,0.706152 -2.60178,3.134941 0.37178,8.627181 4.67085,8.627181 1.84905,0 3.36192,-0.6 3.36192,-1.333334 z m 10.11839,-1.997018 c 1.1796,-4.699867 -0.18956,-7.336315 -3.80988,-7.336315 -3.60868,0 -6.30851,2.282484 -6.30851,5.333333 0,5.79632 8.73247,7.524951 10.11839,2.002982 z m -6.11839,-2.002982 c 0,-1.718518 0.67521,-2.663817 1.66667,-2.333333 0.91666,0.305556 1.66666,1.355556 1.66666,2.333333 0,0.977778 -0.75,2.027778 -1.66666,2.333334 -0.99146,0.330484 -1.66667,-0.614815 -1.66667,-2.333334 z m 10.66667,1.333334 c 0,-2.2 0.6,-4 1.33333,-4 0.73333,0 1.33333,1.8 1.33333,4 0,5.768254 3.94715,5.451805 4.15775,-0.333334 l 0.15776,-4.333333 0.85083,4 c 0.5955,2.799681 1.74848,4.127855 3.84224,4.426068 1.64528,0.234337 2.99142,-0.215663 2.99142,-1 0,-0.784337 -0.6,-1.426068 -1.33333,-1.426068 -1.90141,0 -1.65637,-5.003432 0.27659,-5.647753 1.07624,-0.358744 0.67244,-1.542916 -1.21807,-3.572147 -2.72837,-2.928566 -2.87584,-2.94612 -4.18589,-0.49828 -1.04844,1.959038 -2.442,2.410659 -6.11526,1.981827 l -4.75737,-0.555396 v 5.479208 c 0,3.013564 0.6,5.479208 1.33333,5.479208 0.73334,0 1.33334,-1.8 1.33334,-4 z m 18.66666,0 c 0,-2.666667 0.66667,-4 2,-4 1.1,0 2,-0.6 2,-1.333333 0,-0.733334 -1.5,-1.333334 -3.33333,-1.333334 -3,0 -3.33333,0.533334 -3.33333,5.333333 0,2.933334 0.6,5.333334 1.33333,5.333334 0.73333,0 1.33333,-1.8 1.33333,-4 z m 14.11839,0.669648 c 1.1796,-4.699867 -0.18956,-7.336315 -3.80988,-7.336315 -3.60868,0 -6.30851,2.282484 -6.30851,5.333333 0,5.79632 8.73247,7.524951 10.11839,2.002982 z m -6.11839,-2.002982 c 0,-1.718518 0.67522,-2.663817 1.66667,-2.333333 0.91666,0.305556 1.66666,1.355556 1.66666,2.333333 0,0.977778 -0.75,2.027778 -1.66666,2.333334 -0.99145,0.330484 -1.66667,-0.614815 -1.66667,-2.333334 z m 21.33333,3.709334 c 0,-1.199112 0.38263,-1.193372 1.6,0.024 0.88,0.88 3.28,1.6 5.33334,1.6 3.63636,0 3.73333,-0.190476 3.73333,-7.333333 0,-5.62963 -0.46464,-7.333334 -2,-7.333334 -1.1,0 -2.00468,0.75 -2.0104,1.666667 -0.0133,2.120908 -6.39209,5.172801 -7.40072,3.540796 -1.01688,-1.645347 -7.25555,-1.537119 -7.25555,0.125871 0,0.733333 1.05,1.380701 2.33334,1.438596 1.83754,0.08289 1.90837,0.257138 0.33333,0.820045 -1.1,0.393131 -2.75,1.66044 -3.66667,2.816242 -1.39512,1.759079 -1.66666,1.082384 -1.66666,-4.153377 0,-3.440162 -0.6,-6.25484 -1.33334,-6.25484 -0.73333,0 -1.33333,3.221612 -1.33333,7.159138 v 7.159135 l 6.66667,0.150198 c 4.32461,0.09743 6.66666,-0.403466 6.66666,-1.425804 z m 4,-3.709334 c 0,-1.466666 0.6,-2.666666 1.33334,-2.666666 0.73333,0 1.33333,1.2 1.33333,2.666666 0,1.466667 -0.6,2.666667 -1.33333,2.666667 -0.73334,0 -1.33334,-1.2 -1.33334,-2.666667 z m 18.11839,2.002982 c 1.1796,-4.699867 -0.18956,-7.336315 -3.80988,-7.336315 -3.60868,0 -6.30851,2.282484 -6.30851,5.333333 0,5.79632 8.73247,7.524951 10.11839,2.002982 z m -6.11839,-2.002982 c 0,-1.718518 0.67522,-2.663817 1.66667,-2.333333 0.91667,0.305556 1.66667,1.355556 1.66667,2.333333 0,0.977778 -0.75,2.027778 -1.66667,2.333334 -0.99145,0.330484 -1.66667,-0.614815 -1.66667,-2.333334 z m 10.66667,1.333334 c 0,-2.666667 0.66667,-4 2,-4 1.1,0 2,-0.6 2,-1.333333 0,-0.733334 -1.5,-1.333334 -3.33333,-1.333334 -3,0 -3.33334,0.533334 -3.33334,5.333333 0,2.933334 0.6,5.333334 1.33334,5.333334 0.73333,0 1.33333,-1.8 1.33333,-4 z m 315.99999,1.333333 c 0,-0.733333 -2.4,-1.333333 -5.33333,-1.333333 -2.93333,0 -5.33333,0.6 -5.33333,1.333333 0,0.733333 2.4,1.333333 5.33333,1.333333 2.93333,0 5.33333,-0.6 5.33333,-1.333333 z m 38.34349,-0.210157 c 1.1691,-1.1691 2.05014,-1.123014 3.63222,0.19 2.68178,2.225682 4.26604,0.721301 2.05104,-1.947622 -1.35991,-1.638582 -1.35991,-2.425859 0,-4.064442 2.19013,-2.638955 0.64442,-4.184657 -1.99452,-1.99452 -1.63859,1.359903 -2.42587,1.359903 -4.06446,0 -2.66892,-2.215009 -4.17329,-0.630753 -1.94761,2.051029 1.31301,1.582084 1.35909,2.463122 0.19,3.632221 -0.84892,0.84892 -1.54349,2.023491 -1.54349,2.610158 0,1.551406 1.89425,1.305753 3.67682,-0.476824 z"
     id="path10536"
     inkscape:connector-curvature="0" />
  <path
     style="fill:none;fill-rule:evenodd;stroke:#ffffff;stroke-width:3.77952766;stroke-linecap:butt;stroke-linejoin:miter;stroke-miterlimit:4;stroke-dasharray:30.23622047, 30.23622047;stroke-dashoffset:0;stroke-opacity:1;marker-start:url(#Arrow1Lend);marker-end:url(#Arrow1Lend)"
     d="m 822.27632,423.45161 c 0,0 -32.23487,266.67231 -111.84812,264.91064 C 621.76333,692.1224 531.99999,74.280769 426.84655,42.856118 294.08904,112.05519 262.4647,675.22373 127.98159,688.8568 66.162958,657.26609 19.114683,437.68539 4.2601988,372.97466"
     id="path844"
     inkscape:connector-curvature="0"
     sodipodi:nodetypes="ccccc" />
</svg>
