<?xml version="1.0" encoding="UTF-8" standalone="no"?>
<!-- Created with Inkscape (http://www.inkscape.org/) -->

<svg
   xmlns:dc="http://purl.org/dc/elements/1.1/"
   xmlns:cc="http://creativecommons.org/ns#"
   xmlns:rdf="http://www.w3.org/1999/02/22-rdf-syntax-ns#"
   xmlns:svg="http://www.w3.org/2000/svg"
   xmlns="http://www.w3.org/2000/svg"
   xmlns:sodipodi="http://sodipodi.sourceforge.net/DTD/sodipodi-0.dtd"
   xmlns:inkscape="http://www.inkscape.org/namespaces/inkscape"
   version="1.1"
   id="svg917"
   width="266.66666"
   height="266.66666"
   viewBox="0 0 266.66666 266.66666"
   sodipodi:docname="Pan_src.svg"
   inkscape:version="0.92.3 (2405546, 2018-03-11)">
  <metadata
     id="metadata923">
    <rdf:RDF>
      <cc:Work
         rdf:about="">
        <dc:format>image/svg+xml</dc:format>
        <dc:type
           rdf:resource="http://purl.org/dc/dcmitype/StillImage" />
        <dc:title />
      </cc:Work>
    </rdf:RDF>
  </metadata>
  <defs
     id="defs921" />
  <sodipodi:namedview
     pagecolor="#ffffff"
     bordercolor="#666666"
     borderopacity="1"
     objecttolerance="10"
     gridtolerance="10"
     guidetolerance="10"
     inkscape:pageopacity="0"
     inkscape:pageshadow="2"
     inkscape:window-width="1920"
     inkscape:window-height="1043"
     id="namedview919"
     showgrid="false"
     inkscape:zoom="2.0841973"
     inkscape:cx="158.91652"
     inkscape:cy="145.47704"
     inkscape:window-x="0"
     inkscape:window-y="0"
     inkscape:window-maximized="1"
     inkscape:current-layer="svg917" />
  <path
     style="fill:#ffe680;fill-rule:evenodd;stroke:none;stroke-width:1.3675195px;stroke-linecap:butt;stroke-linejoin:miter;stroke-opacity:1"
     d="M 84.379668,202.99843 H 179.71211 L 148.84516,101.11019 h -12.5653 l 25.1306,81.12818 -58.18283,-0.27316 24.85747,-80.58186 h -11.74583 z"
     id="path970"
     inkscape:connector-curvature="0" />
  <path
     style="fill:#000000;stroke-width:1.33333325"
     d="M 0.33926842,133.33333 V 0 H 133.6726 267.00593 V 133.33333 266.66666 H 133.6726 0.33926842 Z m 262.66666158,0 V 3.9999999 H 133.6726 4.3392684 V 133.33333 262.66666 H 133.6726 263.00593 Z m -155.3968,120.98205 c -0.36775,-0.95832 -0.5039,-12.22133 -0.30258,-25.02889 l 0.36605,-23.2865 h 26 26 v 24.66667 24.66667 l -25.69743,0.36222 c -20.18465,0.28454 -25.84085,-0.012 -26.36604,-1.38017 z m 47.10008,-23.31539 0.36994,-19 H 134.37588 113.6726 v 19.36807 19.36805 l 20.33333,-0.36805 20.33334,-0.36807 z m -29.03661,9.57771 c 0,-0.4156 1.55087,-2.78893 3.44639,-5.27408 l 3.44638,-4.51844 -3.60464,-4.72593 c -2.66706,-3.49671 -3.08316,-4.72592 -1.59973,-4.72592 1.1027,0 3.05572,1.60373 4.34004,3.56385 l 2.33513,3.56387 2.59608,-3.56387 c 3.93432,-5.40095 5.5219,-4.2622 2.17216,1.55807 l -2.9478,5.12193 3.05346,4.28817 c 1.67938,2.3585 2.64298,4.69863 2.14132,5.2003 -0.50167,0.50168 -1.42604,0.0172 -2.05418,-1.07676 -0.62812,-1.0939 -1.98444,-3.1201 -3.01404,-4.50267 -1.78781,-2.40071 -2.0059,-2.32575 -4.84875,1.66667 -2.65273,3.72541 -5.46182,5.48684 -5.46182,3.42481 z m -3.60693,-69.9251 c -4.69643,-2.34683 -10.94946,-7.09795 -15.05494,-11.43888 l -7.022092,-7.42483 -5.83961,5.73115 -5.83961,5.73114 2.26077,-7.29226 c 1.46177,-4.71504 2.29169,-12.08872 2.34826,-20.86391 0.0784,-12.15435 0.3027,-13.37688 2.14837,-11.70658 3.34226,3.0247 19.498882,9.90674 27.550582,11.73538 l 7.45561,1.69325 -6.53354,2.08522 c -3.59344,1.14686 -6.53354,2.84688 -6.53354,3.7778 0,0.93092 2.28885,3.54509 5.08632,5.80928 6.90818,5.59125 13.37047,5.58804 21.09903,-0.0107 3.13359,-2.26996 5.89315,-4.71435 6.13236,-5.43197 0.23921,-0.71764 -2.73441,-2.19023 -6.60805,-3.27244 l -7.04299,-1.96763 6.66667,-2.11377 c 10.16176,-3.22196 15.4066,-5.69874 22.71832,-10.72832 l 6.68134,-4.59596 -0.44612,8.81563 c -0.40549,8.01309 2.0627,21.0708 5.69883,30.14897 0.63857,1.59428 -1.45449,0.25381 -5.20476,-3.33333 -5.92848,-5.67062 -6.35077,-5.8536 -7.69227,-3.33334 -3.04278,5.71655 -18.01964,18.79068 -23.35726,20.38987 -7.74759,2.32124 -9.72534,2.06661 -18.67168,-2.40393 z m -5.7264,-71.269252 c 0,-0.339157 1.14881,-3.789157 2.55292,-7.666666 4.79435,-13.239807 4.79139,-13.050017 0.20359,-13.050017 h -4.08985 V 43.999999 9.3333331 h 18.66667 18.66667 V 43.999999 78.666665 h -4.58724 -4.58723 l 3.25389,9.566869 c 1.78966,5.261778 3.25391,10.061778 3.25391,10.666666 0,0.60489 -7.5,1.099797 -16.66667,1.099797 -9.16666,0 -16.66666,-0.277491 -16.66666,-0.616649 z m 26.66666,-7.145832 c 0,-0.602698 -0.9564,-3.902698 -2.12533,-7.333333 -2.08804,-6.128038 -2.22572,-6.237518 -7.84457,-6.237518 -4.83656,0 -5.82631,0.462996 -6.4131,3 -0.38164,1.65 -1.3097,4.95 -2.06236,7.333333 l -1.36849,4.333333 h 9.90693 c 5.4488,0 9.90692,-0.493117 9.90692,-1.095815 z m 7.33334,-48.237517 V 15.333333 L 134.00593,14.958961 117.6726,14.584589 v 29.41541 29.41541 l 16.33333,-0.374372 16.33334,-0.374372 z"
     id="path927"
     inkscape:connector-curvature="0" />
</svg>
