<?xml version="1.0" encoding="UTF-8" standalone="no"?>
<!-- Created with Inkscape (http://www.inkscape.org/) -->

<svg
   xmlns:dc="http://purl.org/dc/elements/1.1/"
   xmlns:cc="http://creativecommons.org/ns#"
   xmlns:rdf="http://www.w3.org/1999/02/22-rdf-syntax-ns#"
   xmlns:svg="http://www.w3.org/2000/svg"
   xmlns="http://www.w3.org/2000/svg"
   xmlns:sodipodi="http://sodipodi.sourceforge.net/DTD/sodipodi-0.dtd"
   xmlns:inkscape="http://www.inkscape.org/namespaces/inkscape"
   version="1.1"
   id="svg895"
   width="266.66666"
   height="266.66666"
   viewBox="0 0 266.66666 266.66666"
   sodipodi:docname="Tilt_src.svg"
   inkscape:version="0.92.3 (2405546, 2018-03-11)">
  <metadata
     id="metadata901">
    <rdf:RDF>
      <cc:Work
         rdf:about="">
        <dc:format>image/svg+xml</dc:format>
        <dc:type
           rdf:resource="http://purl.org/dc/dcmitype/StillImage" />
        <dc:title />
      </cc:Work>
    </rdf:RDF>
  </metadata>
  <defs
     id="defs899" />
  <sodipodi:namedview
     pagecolor="#ffffff"
     bordercolor="#666666"
     borderopacity="1"
     objecttolerance="10"
     gridtolerance="10"
     guidetolerance="10"
     inkscape:pageopacity="0"
     inkscape:pageshadow="2"
     inkscape:window-width="1920"
     inkscape:window-height="1043"
     id="namedview897"
     showgrid="false"
     inkscape:zoom="0.88500003"
     inkscape:cx="28.156783"
     inkscape:cy="169.55408"
     inkscape:window-x="0"
     inkscape:window-y="0"
     inkscape:window-maximized="1"
     inkscape:current-layer="svg895" />
  <g
     id="g867">
    <path
       inkscape:connector-curvature="0"
       id="path970"
       d="M 202.25827,74.760735 V 170.09318 L 100.37004,139.22623 v -12.56531 l 81.12817,25.13061 -0.27316,-58.182835 -80.58185,24.857465 v -11.74583 z"
       style="fill:#ffe680;fill-rule:evenodd;stroke:none;stroke-width:1.3675195px;stroke-linecap:butt;stroke-linejoin:miter;stroke-opacity:1" />
    <path
       inkscape:connector-curvature="0"
       id="path1448"
       d="M 267.79661,134.46327 V 1.1299471 H 134.46328 1.1299459 V 134.46327 267.79661 H 134.46328 267.79661 Z M 5.1299459,221.7966 v -42 H 15.796616 c 11.77704,0 11.75754,-0.0196 8.62821,8.66667 -1.05676,2.93333 -1.93043,5.48333 -1.94147,5.66667 -0.0107,0.18333 8.97992,0.33333 19.97992,0.33333 11,0 20,-0.50464 20,-1.12143 0,-0.61678 -0.84128,-3.91678 -1.8695,-7.33333 l -1.86951,-6.21191 h 79.202834 79.20284 v 7.33334 7.33333 h 11.33334 11.33333 v -7.33333 -7.33334 h 12 12 v 42 42.00001 H 134.46328 5.1299459 Z m 218.6666641,-52 v -21.99999 h 4.66667 4.66666 v 21.99999 22 h -4.66666 -4.66667 z M 29.802576,189.46327 c 0.52686,-1.28333 3.46376,-10.85603 6.52642,-21.27265 3.06267,-10.41663 5.8732,-19.24404 6.24563,-19.61647 0.60495,-0.60496 13.25867,39.77036 13.23261,42.22245 -0.005,0.55 -6.07481,1 -13.48661,1 -12.31031,0 -13.39312,-0.20184 -12.51805,-2.33333 z M 239.79661,161.86314 v -13.93345 l 7.66667,-0.39988 7.66666,-0.39987 V 122.46327 97.796608 h -26 -26 v 24.666662 24.66667 l 7,0.40301 7,0.40302 v 13.93032 13.93031 h -79.84449 c -74.887634,0 -79.887814,-0.14485 -80.542314,-2.33333 -0.38382,-1.28333 -2.54695,-8.33333 -4.80698,-15.66666 -2.26002,-7.33334 -4.11598,-13.78334 -4.12434,-14.33334 -0.008,-0.55 6.5848,-1 14.65146,-1 h 14.66667 v -3.77777 c 0,-2.07779 0.34993,-4.12772 0.77764,-4.55542 0.4277,-0.42771 4.7751,0.6723 9.66089,2.44445 4.88579,1.77214 9.63584,3.22208 10.55569,3.22208 1.25184,0 1.67244,-4.19152 1.67244,-16.66667 0,-9.16666 -0.37741,-16.66666 -0.83868,-16.66666 -0.46128,0 -4.99704,1.5 -10.07946,3.33333 -5.08243,1.83333 -9.80503,3.33333 -10.49466,3.33333 -0.68962,0 -1.25386,-1.8 -1.25386,-4 v -4 h -34 -34.0000001 v 18.66667 18.66666 H 23.051256 c 7.65672,0 14.17333,0.45 14.48136,1 0.30804,0.55 -1.41395,7 -3.8266,14.33334 -2.41267,7.33333 -4.42928,14.38333 -4.48136,15.66666 -0.0829,2.04237 -1.59111,2.33333 -12.09471,2.33333 H 5.1299459 V 90.463275 5.1299471 H 134.46328 263.79661 V 90.463275 175.7966 h -12 -12 z m -78.66666,5.43192 c 0,-0.29554 -2.08608,-2.85359 -4.63573,-5.68456 -2.54966,-2.83097 -4.60502,-5.44723 -4.56748,-5.81389 0.0375,-0.36667 3.10177,-3.06667 6.8094,-6 10.04537,-7.94752 14.71661,-15.16576 15.43713,-23.85427 0.79649,-9.60463 -3.054,-17.43064 -13.98434,-28.422725 -7.48106,-7.52332 -8.0563,-8.48698 -6,-10.05144 1.25089,-0.95169 3.69325,-3.32914 5.42747,-5.28322 l 3.15312,-3.55286 -6.48645,2.07353 c -3.90003,1.24673 -11.93592,2.14347 -20.15307,2.24893 -7.51664,0.0965 -13.66664,0.33058 -13.66667,0.52027 -2e-5,0.18968 1.64995,2.63552 3.66662,5.43519 3.36614,4.67311 8.34372,17.777835 10.46559,27.553255 0.84038,3.87162 0.93646,3.77533 2.99359,-2.99999 1.16895,-3.85 2.89007,-7 3.82472,-7 0.93465,0 3.50313,2.49002 5.70773,5.53338 6.17977,8.53092 5.07877,17.30025 -3.13543,24.97332 l -3.39716,3.17337 -1.56018,-6.19604 c -1.97767,-7.85401 -3.37022,-8.71999 -4.48309,-2.78788 -1.25065,6.66654 -7.73107,20.5726 -11.88163,25.49632 -1.94378,2.30586 -3.53414,4.41018 -3.53414,4.67627 0,0.26609 2.83814,0.25808 6.30698,-0.0179 7.1663,-0.56996 22.62456,1.89349 29.24822,4.66104 2.44464,1.02148 4.4448,1.6154 4.4448,1.31987 z m 46.66666,-44.83179 v -18.66666 h 20.66667 20.66666 v 18.66666 18.66667 h -20.66666 -20.66667 z m 27.39394,7.39394 c 8.58903,-8.58903 -2.47228,-21.62674 -12.4306,-14.65166 -4.43973,3.10971 -4.13637,11.4748 0.54981,15.16095 4.61355,3.62902 7.88261,3.48889 11.88079,-0.50929 z m -11.34703,-1.97295 c -2.38869,-4.46332 -1.61964,-9.20265 1.86368,-11.48501 4.07422,-2.66953 8.06078,-0.88778 9.33021,4.17004 1.87344,7.46436 -7.74876,13.75226 -11.19389,7.31497 z m -210.421284,-3.75432 -0.37437,-16.33333 h 30.04104 30.04104 v 15.77778 c 0,8.67777 -0.3545,16.13227 -0.78776,16.56554 -0.43327,0.43326 -13.78327,0.68326 -29.66667,0.55554 l -28.8789,-0.2322 z m 67.29828,5.43249 c -3.20773,-1.63953 -3.68424,-2.59925 -3.33333,-6.71344 0.42534,-4.98706 0.62329,-5.12611 12.74276,-8.95176 2.93212,-0.92556 3,-0.71631 3,9.2488 v 10.19579 l -4.33334,-0.93319 c -2.38333,-0.51325 -6.01757,-1.79404 -8.07609,-2.8462 z"
       style="fill:#000000;stroke-width:1.33333325" />
  </g>
</svg>
